<mxfile host="app.diagrams.net" modified="2024-04-08T08:29:06.317Z" agent="Mozilla/5.0 (Windows NT 10.0; Win64; x64) AppleWebKit/537.36 (KHTML, like Gecko) Chrome/123.0.0.0 Safari/537.36" etag="fkutGolZjY6zi0llPtzm" version="24.1.0" type="device">
  <diagram name="Page-1" id="WgfQBI1RcMKa8N6as7xn">
    <mxGraphModel dx="936" dy="575" grid="1" gridSize="10" guides="1" tooltips="1" connect="1" arrows="1" fold="1" page="1" pageScale="1" pageWidth="827" pageHeight="1169" math="0" shadow="0">
      <root>
        <mxCell id="0" />
        <mxCell id="1" parent="0" />
        <mxCell id="43gPpBXcEyUFOMAoJwrk-1" value="" style="rounded=0;whiteSpace=wrap;html=1;" vertex="1" parent="1">
          <mxGeometry x="40" y="40" width="720" height="400" as="geometry" />
        </mxCell>
        <mxCell id="43gPpBXcEyUFOMAoJwrk-2" value="" style="sketch=0;outlineConnect=0;fontColor=#232F3E;gradientColor=none;strokeColor=#232F3E;fillColor=#ffffff;dashed=0;verticalLabelPosition=bottom;verticalAlign=top;align=center;html=1;fontSize=12;fontStyle=0;aspect=fixed;shape=mxgraph.aws4.resourceIcon;resIcon=mxgraph.aws4.aws_cloud;" vertex="1" parent="1">
          <mxGeometry x="40" y="40" width="50" height="50" as="geometry" />
        </mxCell>
        <mxCell id="43gPpBXcEyUFOMAoJwrk-3" value="" style="rounded=0;whiteSpace=wrap;html=1;" vertex="1" parent="1">
          <mxGeometry x="50" y="90" width="700" height="340" as="geometry" />
        </mxCell>
        <mxCell id="43gPpBXcEyUFOMAoJwrk-4" value="Region" style="sketch=0;outlineConnect=0;gradientColor=none;html=1;whiteSpace=wrap;fontSize=12;fontStyle=0;shape=mxgraph.aws4.group;grIcon=mxgraph.aws4.group_region;strokeColor=#B6BABF;fillColor=none;verticalAlign=top;align=left;spacingLeft=30;fontColor=#B6BABF;dashed=1;" vertex="1" parent="1">
          <mxGeometry x="50" y="90" width="700" height="340" as="geometry" />
        </mxCell>
        <mxCell id="43gPpBXcEyUFOMAoJwrk-5" value="Zone de disponibilité A" style="sketch=0;outlineConnect=0;gradientColor=none;html=1;whiteSpace=wrap;fontSize=12;fontStyle=0;shape=mxgraph.aws4.group;grIcon=mxgraph.aws4.group_availability_zone;strokeColor=#545B64;fillColor=none;verticalAlign=top;align=left;spacingLeft=30;fontColor=#545B64;dashed=1;" vertex="1" parent="1">
          <mxGeometry x="70" y="120" width="300" height="300" as="geometry" />
        </mxCell>
        <mxCell id="43gPpBXcEyUFOMAoJwrk-6" value="Zone de disponibilité B" style="sketch=0;outlineConnect=0;gradientColor=none;html=1;whiteSpace=wrap;fontSize=12;fontStyle=0;shape=mxgraph.aws4.group;grIcon=mxgraph.aws4.group_availability_zone;strokeColor=#545B64;fillColor=none;verticalAlign=top;align=left;spacingLeft=30;fontColor=#545B64;dashed=1;" vertex="1" parent="1">
          <mxGeometry x="440" y="120" width="290" height="300" as="geometry" />
        </mxCell>
        <mxCell id="43gPpBXcEyUFOMAoJwrk-7" value="VPC : 10.0.0.0/16" style="sketch=0;outlineConnect=0;gradientColor=none;html=1;whiteSpace=wrap;fontSize=12;fontStyle=0;shape=mxgraph.aws4.group;grIcon=mxgraph.aws4.group_vpc;strokeColor=#879196;fillColor=none;verticalAlign=top;align=left;spacingLeft=30;fontColor=#879196;dashed=0;" vertex="1" parent="1">
          <mxGeometry x="60" y="150" width="680" height="270" as="geometry" />
        </mxCell>
        <mxCell id="43gPpBXcEyUFOMAoJwrk-52" value="" style="edgeStyle=orthogonalEdgeStyle;rounded=0;orthogonalLoop=1;jettySize=auto;html=1;" edge="1" parent="1" source="43gPpBXcEyUFOMAoJwrk-8">
          <mxGeometry relative="1" as="geometry">
            <mxPoint x="840" y="100" as="targetPoint" />
            <Array as="points">
              <mxPoint x="406" y="100" />
              <mxPoint x="800" y="100" />
            </Array>
          </mxGeometry>
        </mxCell>
        <mxCell id="43gPpBXcEyUFOMAoJwrk-8" value="" style="sketch=0;outlineConnect=0;fontColor=#232F3E;gradientColor=none;fillColor=#8C4FFF;strokeColor=none;dashed=0;verticalLabelPosition=bottom;verticalAlign=top;align=center;html=1;fontSize=12;fontStyle=0;aspect=fixed;pointerEvents=1;shape=mxgraph.aws4.internet_gateway;" vertex="1" parent="1">
          <mxGeometry x="371" y="170" width="69" height="69" as="geometry" />
        </mxCell>
        <mxCell id="43gPpBXcEyUFOMAoJwrk-9" value="Passerelle&amp;nbsp;&lt;div&gt;Internet&lt;/div&gt;" style="text;html=1;align=center;verticalAlign=middle;resizable=0;points=[];autosize=1;strokeColor=none;fillColor=none;" vertex="1" parent="1">
          <mxGeometry x="365.5" y="250" width="80" height="40" as="geometry" />
        </mxCell>
        <mxCell id="43gPpBXcEyUFOMAoJwrk-13" value="" style="sketch=0;pointerEvents=1;shadow=0;dashed=0;html=1;strokeColor=none;labelPosition=center;verticalLabelPosition=bottom;verticalAlign=top;outlineConnect=0;align=center;shape=mxgraph.office.security.lock_protected;fillColor=#7FBA42;" vertex="1" parent="1">
          <mxGeometry x="80" y="187" width="30" height="43" as="geometry" />
        </mxCell>
        <mxCell id="43gPpBXcEyUFOMAoJwrk-14" value="" style="sketch=0;pointerEvents=1;shadow=0;dashed=0;html=1;strokeColor=none;labelPosition=center;verticalLabelPosition=bottom;verticalAlign=top;outlineConnect=0;align=center;shape=mxgraph.office.security.lock_protected;fillColor=#7FBA42;" vertex="1" parent="1">
          <mxGeometry x="450" y="187" width="30" height="43" as="geometry" />
        </mxCell>
        <mxCell id="43gPpBXcEyUFOMAoJwrk-19" value="" style="rounded=0;whiteSpace=wrap;html=1;" vertex="1" parent="1">
          <mxGeometry x="80" y="179" width="280" height="101" as="geometry" />
        </mxCell>
        <mxCell id="43gPpBXcEyUFOMAoJwrk-20" value="" style="sketch=0;pointerEvents=1;shadow=0;dashed=0;html=1;strokeColor=none;labelPosition=center;verticalLabelPosition=bottom;verticalAlign=top;outlineConnect=0;align=center;shape=mxgraph.office.security.lock_protected;fillColor=#7FBA42;" vertex="1" parent="1">
          <mxGeometry x="82" y="183" width="30" height="43" as="geometry" />
        </mxCell>
        <mxCell id="43gPpBXcEyUFOMAoJwrk-21" value="" style="rounded=0;whiteSpace=wrap;html=1;" vertex="1" parent="1">
          <mxGeometry x="445" y="179" width="280" height="101" as="geometry" />
        </mxCell>
        <mxCell id="43gPpBXcEyUFOMAoJwrk-22" value="" style="sketch=0;pointerEvents=1;shadow=0;dashed=0;html=1;strokeColor=none;labelPosition=center;verticalLabelPosition=bottom;verticalAlign=top;outlineConnect=0;align=center;shape=mxgraph.office.security.lock_protected;fillColor=#7FBA42;" vertex="1" parent="1">
          <mxGeometry x="450" y="179" width="30" height="43" as="geometry" />
        </mxCell>
        <mxCell id="43gPpBXcEyUFOMAoJwrk-23" value="" style="rounded=0;whiteSpace=wrap;html=1;" vertex="1" parent="1">
          <mxGeometry x="80" y="300" width="280" height="101" as="geometry" />
        </mxCell>
        <mxCell id="43gPpBXcEyUFOMAoJwrk-24" value="" style="sketch=0;pointerEvents=1;shadow=0;dashed=0;html=1;strokeColor=none;labelPosition=center;verticalLabelPosition=bottom;verticalAlign=top;outlineConnect=0;align=center;shape=mxgraph.office.security.lock_protected;fillColor=#2072B8;" vertex="1" parent="1">
          <mxGeometry x="80" y="300" width="28" height="40" as="geometry" />
        </mxCell>
        <mxCell id="43gPpBXcEyUFOMAoJwrk-25" value="" style="rounded=0;whiteSpace=wrap;html=1;" vertex="1" parent="1">
          <mxGeometry x="445.5" y="300" width="280" height="110" as="geometry" />
        </mxCell>
        <mxCell id="43gPpBXcEyUFOMAoJwrk-26" value="" style="sketch=0;pointerEvents=1;shadow=0;dashed=0;html=1;strokeColor=none;labelPosition=center;verticalLabelPosition=bottom;verticalAlign=top;outlineConnect=0;align=center;shape=mxgraph.office.security.lock_protected;fillColor=#2072B8;" vertex="1" parent="1">
          <mxGeometry x="445.5" y="300" width="28" height="40" as="geometry" />
        </mxCell>
        <mxCell id="43gPpBXcEyUFOMAoJwrk-27" value="Sous-réseau public 1&amp;nbsp;&lt;div&gt;10.0.0.0/24&lt;/div&gt;" style="text;html=1;align=center;verticalAlign=middle;resizable=0;points=[];autosize=1;strokeColor=none;fillColor=none;" vertex="1" parent="1">
          <mxGeometry x="108" y="184.5" width="140" height="40" as="geometry" />
        </mxCell>
        <mxCell id="43gPpBXcEyUFOMAoJwrk-28" value="Sous-réseau public 2&amp;nbsp;&lt;div&gt;10.0.2.0/24&lt;/div&gt;" style="text;html=1;align=center;verticalAlign=middle;resizable=0;points=[];autosize=1;strokeColor=none;fillColor=none;" vertex="1" parent="1">
          <mxGeometry x="465" y="179" width="140" height="40" as="geometry" />
        </mxCell>
        <mxCell id="43gPpBXcEyUFOMAoJwrk-29" value="Sous-réseau privé 2&amp;nbsp;&lt;div&gt;10.0.3.0/24&lt;/div&gt;" style="text;html=1;align=center;verticalAlign=middle;resizable=0;points=[];autosize=1;strokeColor=none;fillColor=none;" vertex="1" parent="1">
          <mxGeometry x="470" y="300" width="130" height="40" as="geometry" />
        </mxCell>
        <mxCell id="43gPpBXcEyUFOMAoJwrk-30" value="Sous-réseau privé 1&amp;nbsp;&lt;div&gt;10.0.1.0/24&lt;/div&gt;" style="text;html=1;align=center;verticalAlign=middle;resizable=0;points=[];autosize=1;strokeColor=none;fillColor=none;" vertex="1" parent="1">
          <mxGeometry x="100" y="300" width="130" height="40" as="geometry" />
        </mxCell>
        <mxCell id="43gPpBXcEyUFOMAoJwrk-31" value="" style="sketch=0;outlineConnect=0;fontColor=#232F3E;gradientColor=none;fillColor=#8C4FFF;strokeColor=none;dashed=0;verticalLabelPosition=bottom;verticalAlign=top;align=center;html=1;fontSize=12;fontStyle=0;aspect=fixed;pointerEvents=1;shape=mxgraph.aws4.nat_gateway;" vertex="1" parent="1">
          <mxGeometry x="222" y="216" width="48" height="48" as="geometry" />
        </mxCell>
        <mxCell id="43gPpBXcEyUFOMAoJwrk-32" value="Passerelle&lt;div&gt;NAT&lt;/div&gt;" style="text;html=1;align=center;verticalAlign=middle;resizable=0;points=[];autosize=1;strokeColor=none;fillColor=none;" vertex="1" parent="1">
          <mxGeometry x="270" y="223" width="80" height="40" as="geometry" />
        </mxCell>
        <mxCell id="43gPpBXcEyUFOMAoJwrk-36" value="Groupe de sécurité" style="fillColor=none;strokeColor=#DD3522;verticalAlign=top;fontStyle=0;fontColor=#DD3522;whiteSpace=wrap;html=1;" vertex="1" parent="1">
          <mxGeometry x="222" y="305.75" width="130" height="89.5" as="geometry" />
        </mxCell>
        <mxCell id="43gPpBXcEyUFOMAoJwrk-37" value="Groupe de sécurité" style="fillColor=none;strokeColor=#DD3522;verticalAlign=top;fontStyle=0;fontColor=#DD3522;whiteSpace=wrap;html=1;" vertex="1" parent="1">
          <mxGeometry x="590" y="184.75" width="130" height="89.5" as="geometry" />
        </mxCell>
        <mxCell id="43gPpBXcEyUFOMAoJwrk-38" value="Groupe de sécurité" style="fillColor=none;strokeColor=#DD3522;verticalAlign=top;fontStyle=0;fontColor=#DD3522;whiteSpace=wrap;html=1;" vertex="1" parent="1">
          <mxGeometry x="590" y="305.75" width="130" height="94.25" as="geometry" />
        </mxCell>
        <mxCell id="43gPpBXcEyUFOMAoJwrk-39" value="" style="sketch=0;outlineConnect=0;fontColor=#232F3E;gradientColor=none;strokeColor=#ffffff;fillColor=#232F3E;dashed=0;verticalLabelPosition=middle;verticalAlign=bottom;align=center;html=1;whiteSpace=wrap;fontSize=10;fontStyle=1;spacing=3;shape=mxgraph.aws4.productIcon;prIcon=mxgraph.aws4.rds;" vertex="1" parent="1">
          <mxGeometry x="222" y="355.75" width="42" height="39.5" as="geometry" />
        </mxCell>
        <mxCell id="43gPpBXcEyUFOMAoJwrk-40" value="" style="sketch=0;outlineConnect=0;fontColor=#232F3E;gradientColor=none;strokeColor=#ffffff;fillColor=#232F3E;dashed=0;verticalLabelPosition=middle;verticalAlign=bottom;align=center;html=1;whiteSpace=wrap;fontSize=10;fontStyle=1;spacing=3;shape=mxgraph.aws4.productIcon;prIcon=mxgraph.aws4.rds;" vertex="1" parent="1">
          <mxGeometry x="590" y="355.5" width="42" height="34.75" as="geometry" />
        </mxCell>
        <mxCell id="43gPpBXcEyUFOMAoJwrk-41" value="&lt;font style=&quot;font-size: 10px;&quot;&gt;Base de données&amp;nbsp;&lt;/font&gt;&lt;div style=&quot;font-size: 10px;&quot;&gt;&lt;font style=&quot;font-size: 10px;&quot;&gt;RDS principale&lt;/font&gt;&lt;/div&gt;" style="text;html=1;align=center;verticalAlign=middle;resizable=0;points=[];autosize=1;strokeColor=none;fillColor=none;" vertex="1" parent="1">
          <mxGeometry x="260" y="355.75" width="100" height="40" as="geometry" />
        </mxCell>
        <mxCell id="43gPpBXcEyUFOMAoJwrk-42" value="&lt;font style=&quot;font-size: 10px;&quot;&gt;Base de données&amp;nbsp;&lt;/font&gt;&lt;div style=&quot;font-size: 10px;&quot;&gt;&lt;font style=&quot;font-size: 10px;&quot;&gt;RDS secondaire&lt;/font&gt;&lt;/div&gt;" style="text;html=1;align=center;verticalAlign=middle;resizable=0;points=[];autosize=1;strokeColor=none;fillColor=none;" vertex="1" parent="1">
          <mxGeometry x="625.5" y="352.88" width="100" height="40" as="geometry" />
        </mxCell>
        <mxCell id="43gPpBXcEyUFOMAoJwrk-43" value="" style="image;aspect=fixed;perimeter=ellipsePerimeter;html=1;align=center;shadow=0;dashed=0;spacingTop=3;image=img/lib/active_directory/web_server.svg;" vertex="1" parent="1">
          <mxGeometry x="600" y="213" width="40" height="50" as="geometry" />
        </mxCell>
        <mxCell id="43gPpBXcEyUFOMAoJwrk-45" value="Serveur&lt;div&gt;WEB&lt;/div&gt;" style="text;html=1;align=center;verticalAlign=middle;resizable=0;points=[];autosize=1;strokeColor=none;fillColor=none;" vertex="1" parent="1">
          <mxGeometry x="640" y="220" width="70" height="40" as="geometry" />
        </mxCell>
        <mxCell id="43gPpBXcEyUFOMAoJwrk-46" value="AWS CLOUD" style="text;html=1;align=center;verticalAlign=middle;resizable=0;points=[];autosize=1;strokeColor=none;fillColor=none;" vertex="1" parent="1">
          <mxGeometry x="90" y="50" width="100" height="30" as="geometry" />
        </mxCell>
        <mxCell id="43gPpBXcEyUFOMAoJwrk-47" value="" style="endArrow=classic;html=1;rounded=0;entryX=0.161;entryY=0.604;entryDx=0;entryDy=0;entryPerimeter=0;exitX=0.194;exitY=0.017;exitDx=0;exitDy=0;exitPerimeter=0;" edge="1" parent="1" source="43gPpBXcEyUFOMAoJwrk-41" target="43gPpBXcEyUFOMAoJwrk-21">
          <mxGeometry width="50" height="50" relative="1" as="geometry">
            <mxPoint x="450" y="370" as="sourcePoint" />
            <mxPoint x="500" y="320" as="targetPoint" />
          </mxGeometry>
        </mxCell>
        <mxCell id="43gPpBXcEyUFOMAoJwrk-48" value="" style="endArrow=none;dashed=1;html=1;dashPattern=1 3;strokeWidth=2;rounded=0;exitX=0.179;exitY=0.054;exitDx=0;exitDy=0;exitPerimeter=0;entryX=0;entryY=0.5;entryDx=0;entryDy=0;" edge="1" parent="1" source="43gPpBXcEyUFOMAoJwrk-41" target="43gPpBXcEyUFOMAoJwrk-38">
          <mxGeometry width="50" height="50" relative="1" as="geometry">
            <mxPoint x="450" y="370" as="sourcePoint" />
            <mxPoint x="500" y="320" as="targetPoint" />
          </mxGeometry>
        </mxCell>
      </root>
    </mxGraphModel>
  </diagram>
</mxfile>
